<svg xmlns="http://www.w3.org/2000/svg" version="1.1" xmlns:xlink="http://www.w3.org/1999/xlink" xmlns:svgjs="http://svgjs.dev/svgjs" width="1440" height="560" preserveAspectRatio="none" viewBox="0 0 1440 560"><g mask="url(&quot;#SvgjsMask1025&quot;)" fill="none"><rect width="1440" height="560" x="0" y="0" fill="rgba(242, 238, 236, 1)"></rect><path d="M852.421,87.988C871.377,87.859,892.655,86.182,902.286,69.855C912.017,53.359,904.347,33.196,894.394,16.833C884.927,1.269,870.634,-12.522,852.421,-12.121C834.717,-11.731,822.84,3.549,813.535,18.615C803.523,34.826,792.052,53.919,801.369,70.54C810.794,87.354,833.146,88.119,852.421,87.988" fill="rgba(238, 191, 159, 0.4)" class="triangle-float1"></path><path d="M715.955,326.581C737.686,326.255,759.786,320.961,772.034,303.008C785.942,282.621,791.738,255.369,778.927,234.275C766.455,213.74,739.98,210.447,715.955,210.672C692.449,210.892,667.498,215.53,654.997,235.437C641.826,256.411,643.118,284.148,656.887,304.735C669.396,323.438,693.458,326.918,715.955,326.581" fill="rgba(238, 191, 159, 0.4)" class="triangle-float1"></path><path d="M565.512,460.402C605.799,461.297,640.626,433.337,659.179,397.565C676.333,364.489,669.203,326.599,652.065,293.515C633.053,256.814,606.833,217.745,565.512,216.747C523.103,215.723,490.085,251.067,471.404,289.153C454.937,322.725,460.779,360.786,478.788,393.557C497.628,427.84,526.403,459.533,565.512,460.402" fill="rgba(238, 191, 159, 0.4)" class="triangle-float1"></path><path d="M194.93,387.88C227.795,387.625,262.907,379.51,279.191,350.962C295.368,322.602,285.313,287.793,267.706,260.297C251.621,235.177,224.689,221.417,194.93,219.374C160.343,217,121.43,219.906,102.512,248.957C82.335,279.941,87.898,321.5,108.378,352.285C126.897,380.123,161.496,388.139,194.93,387.88" fill="rgba(238, 191, 159, 0.4)" class="triangle-float2"></path><path d="M667.525,246.276C681.632,245.938,696.583,242.883,703.862,230.794C711.326,218.399,708.548,202.836,701.178,190.385C693.961,178.192,681.676,170.122,667.525,169.402C651.934,168.609,635.638,173.389,627.367,186.629C618.662,200.564,618.863,218.983,628.039,232.612C636.376,244.995,652.601,246.634,667.525,246.276" fill="rgba(238, 191, 159, 0.4)" class="triangle-float1"></path><path d="M211.059,279.494C232.709,278.717,251.372,266.04,262.564,247.491C274.191,228.221,278.925,204.55,268.224,184.751C257.049,164.076,234.489,150.366,211.059,152.2C189.903,153.856,178.301,174.339,167.547,192.633C156.569,211.309,143.025,232.062,152.728,251.432C163.086,272.109,187.948,280.323,211.059,279.494" fill="rgba(238, 191, 159, 0.4)" class="triangle-float1"></path></g><defs><mask id="SvgjsMask1025"><rect width="1440" height="560" fill="#ffffff"></rect></mask><style>
                @keyframes float1 {
                    0%{transform: translate(0, 0)}
                    50%{transform: translate(-10px, 0)}
                    100%{transform: translate(0, 0)}
                }

                .triangle-float1 {
                    animation: float1 5s infinite;
                }

                @keyframes float2 {
                    0%{transform: translate(0, 0)}
                    50%{transform: translate(-5px, -5px)}
                    100%{transform: translate(0, 0)}
                }

                .triangle-float2 {
                    animation: float2 4s infinite;
                }

                @keyframes float3 {
                    0%{transform: translate(0, 0)}
                    50%{transform: translate(0, -10px)}
                    100%{transform: translate(0, 0)}
                }

                .triangle-float3 {
                    animation: float3 6s infinite;
                }
            </style></defs></svg>