<svg xmlns="http://www.w3.org/2000/svg" version="1.1" xmlns:xlink="http://www.w3.org/1999/xlink" xmlns:svgjs="http://svgjs.dev/svgjs" width="1440" height="560" preserveAspectRatio="none" viewBox="0 0 1440 560"><g mask="url(&quot;#SvgjsMask1013&quot;)" fill="none"><rect width="1440" height="560" x="0" y="0" fill="rgba(248, 241, 238, 1)"></rect><path d="M8.722,452.098C33.252,452.187,55.736,437.695,67.102,415.957C77.729,395.633,71.42,372.498,61.037,352.048C49.212,328.759,34.841,301.027,8.722,300.98C-17.434,300.932,-32.165,328.493,-43.923,351.857C-54.182,372.242,-59.54,395.333,-48.929,415.537C-37.589,437.129,-15.667,452.01,8.722,452.098" fill="rgba(244, 146, 80, 0.4)" class="triangle-float1"></path><path d="M233.308,148.573C271.386,147.986,294.487,111.171,313.195,78C331.444,45.641,349.741,7.55,330.895,-24.465C312.21,-56.206,270.135,-58.306,233.308,-57.706C197.898,-57.129,159.511,-51.611,141.077,-21.372C122.069,9.808,131.621,48.434,149.039,80.529C167.497,114.539,194.617,149.169,233.308,148.573" fill="rgba(244, 146, 80, 0.4)" class="triangle-float2"></path><path d="M238.174,400.376C263.479,400.135,289.998,395.406,304.059,374.366C319.617,351.087,322.003,320.259,307.872,296.088C293.856,272.114,265.942,261.269,238.174,261.674C211.167,262.068,185.761,274.882,171.908,298.069C157.69,321.866,155.013,352.373,170.083,375.64C184.153,397.363,212.293,400.622,238.174,400.376" fill="rgba(244, 146, 80, 0.4)" class="triangle-float3"></path><path d="M837.35,520.775C870.551,519.278,891.198,488.459,907.193,459.326C922.387,431.652,934.58,399.319,919.157,371.771C903.473,343.756,869.448,333.815,837.35,334.573C806.719,335.297,778.132,349.451,761.973,375.484C744.848,403.073,740.722,437.333,755.676,466.157C771.841,497.316,802.283,522.356,837.35,520.775" fill="rgba(244, 146, 80, 0.4)" class="triangle-float1"></path><path d="M314.528,649.229C350.055,650.539,377.055,621.312,394.908,590.569C412.859,559.657,424.757,521.789,406.318,491.166C388.273,461.196,349.445,454.918,314.528,457.07C283.745,458.968,255.37,474.401,240.447,501.391C225.982,527.553,230.404,558.272,243.796,584.998C259.088,615.515,280.417,647.971,314.528,649.229" fill="rgba(244, 146, 80, 0.4)" class="triangle-float2"></path><path d="M640.566,508.473C685.331,508.02,728.269,485.302,748.956,445.602C768.356,408.372,755.186,365.323,734.066,329.04C713.112,293.042,682.209,258.5,640.566,259.393C599.936,260.264,574.559,297.992,553.761,332.906C532.238,369.036,509.67,410.136,528.309,447.835C548.512,488.696,594.985,508.934,640.566,508.473" fill="rgba(244, 146, 80, 0.4)" class="triangle-float3"></path></g><defs><mask id="SvgjsMask1013"><rect width="1440" height="560" fill="#ffffff"></rect></mask><style>
                @keyframes float1 {
                    0%{transform: translate(0, 0)}
                    50%{transform: translate(-10px, 0)}
                    100%{transform: translate(0, 0)}
                }

                .triangle-float1 {
                    animation: float1 5s infinite;
                }

                @keyframes float2 {
                    0%{transform: translate(0, 0)}
                    50%{transform: translate(-5px, -5px)}
                    100%{transform: translate(0, 0)}
                }

                .triangle-float2 {
                    animation: float2 4s infinite;
                }

                @keyframes float3 {
                    0%{transform: translate(0, 0)}
                    50%{transform: translate(0, -10px)}
                    100%{transform: translate(0, 0)}
                }

                .triangle-float3 {
                    animation: float3 6s infinite;
                }
            </style></defs></svg>